<?xml version="1.0" encoding="utf-8"?>
<!-- Generator: Adobe Illustrator 25.4.1, SVG Export Plug-In . SVG Version: 6.00 Build 0)  -->
<svg version="1.1" id="Layer_1" xmlns="http://www.w3.org/2000/svg" xmlns:xlink="http://www.w3.org/1999/xlink" x="0px" y="0px"
	 viewBox="0 0 420 413" style="enable-background:new 0 0 420 413;" xml:space="preserve">
<style type="text/css">
	.st0{display:none;fill:#BDBDBD;}
	.st1{fill:#B71C1C;}
	.st2{fill:#DD2C00;}
	.st3{fill:#BDBDBD;}
	.st4{fill:#EEEEEE;}
</style>
<path class="st0" d="M209.3-13L0,59.8l33.1,271.2L209.6,427l177.4-97.2L420,58.6L209.3-13z"/>
<path class="st1" d="M398.2,72.3L210,8.4V404l158.3-86.8L398.2,72.3z"/>
<path class="st2" d="M209.4,8.1L21.8,73.4l29.9,245l157.8,85.8l0.5-0.3V8.4L209.4,8.1z"/>
<path class="st3" d="M210,27V122l85.8,185h44.1L210,27z"/>
<path class="st4" d="M80.1,307h44.1L210,122V27L80.1,307z"/>
<path class="st3" d="M210,207h60v40h-60V207z"/>
<path class="st4" d="M150,207h60v40h-60V207z"/>
</svg>
