<?xml version="1.0" encoding="utf-8"?>
<!-- Generator: Adobe Illustrator 22.0.0, SVG Export Plug-In . SVG Version: 6.00 Build 0)  -->
<svg version="1.1" id="Capa_1" xmlns="http://www.w3.org/2000/svg" xmlns:xlink="http://www.w3.org/1999/xlink" x="0px" y="0px"
	 viewBox="0 0 29.7 29.7" style="enable-background:new 0 0 29.7 29.7;" xml:space="preserve">
<style type="text/css">
	.st0{fill:#69B072;}
</style>
<g>
	<path class="st0" d="M29.3,3.4c-0.6-0.6-1.5-0.6-2.1,0L24.6,6c-2.6-3.1-6.4-5-10.7-5C6.2,0.9,0,7.2,0,14.9s6.2,13.9,13.9,13.9
		s13.9-6.2,13.9-13.9c0-2.3-0.6-4.4-1.5-6.3l3-3C29.9,4.9,29.9,4,29.3,3.4z M24.8,14.9c0,6-4.9,10.9-10.9,10.9
		C7.9,25.8,3,20.9,3,14.9c0-6,4.9-10.9,10.9-10.9c3.5,0,6.6,1.6,8.6,4.2l-8.2,8.2l-4.9-4.9c-0.6-0.6-1.5-0.6-2.1,0
		c-0.6,0.6-0.6,1.5,0,2.1l6,6c0.3,0.3,0.7,0.4,1.1,0.4s0.8-0.2,1.1-0.4l8.7-8.7C24.5,12,24.8,13.4,24.8,14.9z"/>
</g>
</svg>
