<?xml version="1.0" encoding="utf-8"?>
<!-- Generator: Adobe Illustrator 25.4.1, SVG Export Plug-In . SVG Version: 6.00 Build 0)  -->
<svg version="1.1" id="Layer_1" xmlns="http://www.w3.org/2000/svg" xmlns:xlink="http://www.w3.org/1999/xlink" x="0px" y="0px"
	 viewBox="0 0 630 370" style="enable-background:new 0 0 630 370;" xml:space="preserve">
<style type="text/css">
	.st0{fill:#ECECEC;}
	.st1{fill:#36B100;}
	.st2{fill:#606060;}
	.st3{fill:#037515;}
	.st4{fill:#F6A397;}
	.st5{fill:#D65863;}
	.st6{fill:#010040;}
	.st7{fill:#353570;}
	.st8{fill:#504984;}
	.st9{fill:#372D5B;}
	.st10{fill:#181918;}
	.st11{fill:#FFFFFF;}
	.st12{fill:#3F1751;}
	.st13{fill:#427F42;}
	.st14{fill:#5DAD64;}
	.st15{fill:#007B00;}
	.st16{fill:#282142;}
	.st17{fill:#7F74D1;}
	.st18{fill:#375A64;}
</style>
<g id="OBJECTS">
	<path class="st0" d="M613.7,284.7c-26,39.5-70.6,62.7-117.9,62.7H103.6c-78.8,0-123.1-92.2-71.9-144.1c51.1-51.9,6-96.2,84.8-137.9
		C192.9,25.1,219,111,289.4,54.8s172.9-50.9,195.4,6.4s17.2,77.5,65,90.2s94.4,84.9,65.8,130.5C614.9,282.9,614.3,283.8,613.7,284.7
		z"/>
	<g>
		<g>
			<path class="st1" d="M596.3,300.7c-41.3,3.5-69.2,81-172.5,34.4c0,0,11.3-33.8,62.2-54.9C536.7,259.2,596.3,300.7,596.3,300.7z"
				/>
			<path class="st2" d="M437.9,329.3c10.8-5.6,22-10.4,33.4-14.6c2.8-1.1,5.7-2.1,8.6-3c2.9-1,5.8-1.9,8.7-2.8s5.9-1.7,8.8-2.5
				c1.5-0.4,2.9-0.8,4.4-1.2l4.4-1.1l4.5-1l4.5-0.9l4.5-0.9c1.5-0.3,3-0.5,4.5-0.7c3-0.4,6-1,9.1-1.2c3-0.3,6.1-0.8,9.1-0.9
				c12.2-0.9,24.5-0.7,36.5,1.3c-12.2-0.3-24.2,0.4-36.2,1.9l-2.2,0.3l-2.2,0.3l-4.5,0.7c-3,0.4-5.9,1-8.9,1.5
				c-1.5,0.3-3,0.5-4.4,0.8l-4.4,0.9l-4.4,0.9l-4.4,1.1l-4.4,1c-1.5,0.4-2.9,0.7-4.4,1.1l-4.4,1.1c-1.5,0.4-2.9,0.8-4.4,1.2
				c-2.9,0.8-5.8,1.6-8.7,2.5s-5.8,1.7-8.7,2.6C460.8,321.3,449.3,325.3,437.9,329.3z"/>
		</g>
		<g>
			<path class="st1" d="M601.3,168.9c-50.4,36-27.1,156.8-195.4,175.8c0,0-11.2-52.1,38-118C493.1,160.9,601.3,168.9,601.3,168.9z"
				/>
			<path class="st3" d="M417.1,330.2c7.3-15.9,16.4-31,26.6-45.3s21.6-27.8,34-40.3s25.9-24,40.5-33.9c14.5-9.9,30.2-18.5,46.9-23.8
				c-15.5,8.1-29.9,17.8-43.5,28.4C508,226,495.1,237.5,483,249.8c-12.2,12.2-23.7,25.2-34.6,38.6
				C437.4,301.8,427.1,315.8,417.1,330.2z"/>
		</g>
		<g>
			<path class="st1" d="M57.4,290c41,6.4,63.3,85.6,169.6,46.5c0,0-8.9-34.5-58.1-59.1C119.7,252.7,57.4,290,57.4,290z"/>
			<path class="st3" d="M213.4,329.6c-11.2-4.8-22.3-9.6-33.5-14c-2.8-1.1-5.6-2.1-8.5-3.2c-2.8-1.1-5.7-2.1-8.5-3.1
				c-1.4-0.5-2.8-1-4.3-1.5l-4.3-1.4c-1.4-0.5-2.9-1-4.3-1.4l-4.3-1.3l-4.3-1.4l-4.3-1.2l-4.3-1.2c-1.4-0.4-2.9-0.7-4.4-1.1
				c-2.9-0.7-5.8-1.5-8.8-2.1l-4.4-1l-2.2-0.5l-2.2-0.4c-11.8-2.3-23.8-3.9-35.9-4.4c12.1-1.2,24.4-0.5,36.5,1.2c3,0.3,6,1,9,1.5
				s6,1.2,9,1.9c1.5,0.3,3,0.7,4.5,1.1l4.4,1.2l4.4,1.2l4.4,1.3l4.4,1.4c1.4,0.5,2.9,1,4.3,1.5c2.9,1,5.8,2,8.6,3.1s5.7,2.2,8.5,3.4
				c2.8,1.2,5.6,2.3,8.4,3.6C192.2,317.7,203,323.3,213.4,329.6z"/>
		</g>
		<g>
			<path class="st1" d="M84.6,163.4C130,201,99.8,313.9,258.1,343.2c0,0,14.1-48.7-28.1-114.4C187.8,163,84.6,163.4,84.6,163.4z"/>
			<path class="st3" d="M248.5,328.6c-8.6-14.3-17.4-28.2-26.8-41.7c-9.5-13.5-19.5-26.5-30.3-38.9c-10.7-12.4-22.1-24.2-34.3-35.3
				c-12.2-11-25.2-21.1-39.3-30c15.5,6.1,29.8,15.2,43,25.6s25.2,22.2,36.1,34.9c10.9,12.7,20.8,26.3,29.5,40.6
				C235.1,298.1,242.7,313,248.5,328.6z"/>
		</g>
	</g>
	<g>
		<g>
			<path class="st4" d="M351.7,268.5c-5.7,6.7-10.8,17.9-14,19.7c-3.2,1.8-8.6,2.4-13.7,18.8s20.6,14.2,20.6,14.2s11-6.3,15.4-21.6
				l11-9.8L351.7,268.5z"/>
			<path class="st5" d="M331.8,319.4c0,0,8.3-2.7,15.4-10.2s8-20.8,8-20.8l3.4,6.3l6.8-7.3l3.3-0.3l2.4,2.7l-11,9.8
				c-4.4,15.3-15.4,21.6-15.4,21.6s-7.1,0.6-13.1-1.2C331.6,319.6,331.8,319.4,331.8,319.4z"/>
			<path class="st6" d="M390.2,209.8c-7.9,5.8-12.6,9.9-16.5,17.8c-3.9,7.8-28.5,36-30,38.5c-1.6,2.5,13.8,29.1,26.1,35.7
				c0,0,18.6-21.4,29.3-29.5c10.7-8.1,7.1-36.8,2.1-46.5C396.2,216.1,390.2,209.8,390.2,209.8z"/>
			<path class="st6" d="M389.9,261.6v-16c0,0,2.1-0.8,3.7,4.6c0.7,2.2,0.6,4.4,0.3,6.4l12-9c0.5,10.1-1.1,20.3-6.8,24.6
				c-10.7,8.1-29.3,29.5-29.3,29.5c-3.2-1.7-6.5-4.7-9.8-8.3C367.5,285.9,381.9,271.4,389.9,261.6z"/>
			<path class="st4" d="M313.6,314.9c-2,0.6-3.6,1.6-3.6,4.2s0.4,6.7,1.4,8.3c1,1.6,6,2.6,6,2.6s-0.3-10.6-1.4-12.6
				C315,315.3,313.6,314.9,313.6,314.9z"/>
			<path class="st5" d="M311.4,327.3c-0.3-0.4-0.5-1.1-0.7-1.9c1.1,1.1,1.5,1.1,2.8,1.2l3.8,1.2c0.1,1.2,0.1,2,0.1,2
				S312.4,328.9,311.4,327.3z"/>
			<path class="st4" d="M318.4,311c-2.5,0.3-5,2.1-5,4.7s-0.9,9.8,0,10.9c0.9,1.2,5.2,4.4,6.7,4.7c1.5,0.3,4.1-0.2,3.7-1
				C323.6,329.5,318.4,311,318.4,311z"/>
			<path class="st5" d="M313.1,324.7c1.9,2.1,6.7,1.9,6.7,1.9s2.1,2.3,2.4,3c0.2,0.4,1,1,1.1,1.5c-0.8,0.3-2.2,0.4-3.1,0.2
				c-1.5-0.3-5.7-3.4-6.7-4.6L313.1,324.7L313.1,324.7z"/>
			<path class="st4" d="M327.8,306.7c-7.6,0.4-9.1,1.1-9.3,4.2c-0.3,3.1-0.1,12.2,0.9,14.5s1.5,4.4,2.8,5.6c1.2,1.2,3.1,1.2,3.1,1.2
				s4.2-6.1,4.4-11.3C329.7,315.9,327.8,306.7,327.8,306.7z"/>
			<path class="st5" d="M323.4,327.2c0.4-2.1,1.2-4.4,1.4-11.4c0-2.7,2.5,11.2,1.4,15c-0.5,0.9-0.9,1.5-0.9,1.5s-1.9,0-3.1-1.2
				s-1.8-3.3-2.8-5.6c-0.1-0.2-0.1-0.3-0.2-0.5C319.6,326.2,321.2,327.1,323.4,327.2z"/>
			<path class="st4" d="M344.5,322.4c-0.5,4.2-6,5.8-6.7,7.9c-0.6,2.1-0.2,4.1-1.2,4.6c-1.1,0.5-5.5-2-5.3-4.8c0,0-1.2,2.4-3.7,2.8
				c-2.6,0.4-3.2-1.4-2.8-4.3c0.4-2.8,0.4-4.3,0.3-7.7c-0.1-3.4-0.9-6.5,0.6-10.2s3.6-7,7.6-6.4c4.1,0.6,6.6,5.8,8.8,7.5
				C344.3,313.6,345,317.6,344.5,322.4z"/>
			<path class="st5" d="M331.2,330.1c0.2-5.4,0.5-9.8,0.5-10.7c0-0.9-0.3-6.6,1.8-6.9c0.3-0.1,4.8,2.8,4.9,4.7
				c0.1,1.9,0,5.4-1.4,6.3C335.6,324.5,331.2,330.1,331.2,330.1z"/>
		</g>
		<g>
			<path class="st6" d="M516.3,221.3c-8.1-10.3-10.9-11.3-19.2-16.2c-8.4-4.9-40-17.2-46.6-18.8c-6.5-1.6-32.9,10.7-41.5,14.6
				s-19.6,7.8-21.5,11.6c-6.3,12.8,6.1,30.9,6.2,68.8c0,19.9,4.6,64.6,4.6,64.6s99.5,0.2,100.9-1.9s4.9-73.5,6.6-88.1
				C507.5,241.3,516.3,221.3,516.3,221.3z"/>
			<g>
				<path class="st6" d="M387.8,232.5c-0.7-2.4-1.2-4.8-1.6-7.3c-0.3-2.5-0.6-4.9-0.6-7.4c0.7,2.4,1.2,4.8,1.6,7.3
					C387.6,227.5,387.9,230,387.8,232.5z"/>
			</g>
			<path class="st6" d="M425.1,217.6c-3.8-1.4-13,1.1-14.6,1.6c-1.7,0.6,1-6.5,2-7.4s2.5-2.9,5.5-2s5.5,4.4,6,5.5
				C424.3,216.4,425.1,217.6,425.1,217.6z"/>
			<path class="st6" d="M457.1,223.5c-1.4-0.1-9.4-3.7-11.3-4.7s-10.6-1.3-16.4,0.3c0,0,11.2-7.6,17.7-7.5s9,2.4,9.5,4.5
				C457.2,218.2,457.1,223.5,457.1,223.5z"/>
			<path class="st6" d="M414.3,329.9c1.1-1,66,1,67.4-5.7c1.3-6.8,2.2-19.1,2.2-19.1c-7.8,4.2-19.2,2.4-19.2,2.4
				c7.6-2.5,18.5-14.9,19.1-18.6c1.6-11.3-4.4-42.3-4.4-42.3l4.4-8.9l5.2-2.9c0,0,9.8,4.9,18.1,13.8c-0.6,2.5-1,4.9-1.3,7.2
				c-1.6,13.8-4.8,78-6.4,87.1c-20.1,0.7-56.6,2.1-81,2.9c-11.8,0-20.1,0-20.1,0s-0.2-5.9-0.5-14.3
				C404.6,331.2,413.7,330.6,414.3,329.9z"/>
			<path class="st6" d="M427.5,219.5c7-0.8,18.3-6.9,22.7-4.8s5.5,7.4,6.4,8.4s4.8-3.7,4.8-14.9s0.3-22.7-7.9-24.3
				c-8.3-1.6-29.7,6.5-34,9.8s-6.1,6.6-7.3,9.7c-1.2,3.2-4.3,16-2.9,16.1s5.5-8.2,8.5-8.5C420.8,210.7,425.6,219.7,427.5,219.5z"/>
			<path class="st6" d="M423.5,209.4c-1.8-4.2-3.7-8-3.7-10.9c0.1-2.9,0.7-5,4-5.9s4.6,0.8,4.8,5.3
				C428.8,202.4,423.5,209.4,423.5,209.4z"/>
			<path class="st6" d="M449.1,201.5c6.8-6.2,7.6-13.1,7-14.5s-3.5-2.5-3.5-2.5s-1.1,4.5-0.5,5.6
				C452.8,191.2,449.1,201.5,449.1,201.5z"/>
			<g>
				<path class="st7" d="M438.3,216.5c1.7-0.7,3.4-1.3,5.2-1.8c1.8-0.4,3.6-0.8,5.5-0.7c0.9,0.1,1.9,0.3,2.8,0.9
					c0.7,0.7,1.3,1.3,1.9,2c1.2,1.4,2.1,3.1,2.9,4.7c0.2,0.4,0.4,0.8,0.6,0.8c0,0,0,0,0.1-0.1s0.3-0.2,0.4-0.4
					c0.5-0.7,0.9-1.5,1.3-2.3c0.8-1.6,1.3-3.3,1.6-5.1c0.3-1.8,0.5-3.6,0.7-5.4s0.2-3.6,0.2-5.4c0.4,3.6,0.4,7.3-0.1,10.9
					c-0.2,1.8-0.7,3.7-1.5,5.4c-0.4,0.8-0.8,1.7-1.4,2.4c-0.2,0.2-0.3,0.4-0.6,0.6c-0.1,0.1-0.3,0.2-0.5,0.2s-0.5,0-0.6-0.1
					c-0.4-0.2-0.5-0.4-0.7-0.7c-0.1-0.2-0.3-0.4-0.4-0.6c-0.8-1.7-1.6-3.2-2.7-4.6c-0.6-0.7-1.2-1.4-1.8-2c-0.6-0.5-1.4-0.7-2.3-0.8
					c-1.7-0.2-3.6,0-5.3,0.4C441.7,215.5,440,215.9,438.3,216.5z"/>
			</g>
			<g>
				<path class="st7" d="M422.2,214.1c-0.8-0.7-1.5-1.3-2.3-1.9c-0.4-0.3-0.8-0.5-1.2-0.7c-0.2-0.1-0.4-0.1-0.6-0.2
					c-0.1,0-0.2,0-0.2,0c-0.1,0-0.1,0-0.2,0.1c-1.7,1-3,2.5-4.1,4.1c-0.6,0.8-1.1,1.7-1.7,2.5c-0.3,0.4-0.7,0.8-1.1,1.1
					c-0.2,0.2-0.5,0.4-0.9,0.4c-0.2,0-0.5-0.1-0.7-0.2c-0.2-0.2-0.3-0.3-0.3-0.5c-0.2-0.6-0.1-1.1-0.1-1.7c0.1-0.5,0.2-1,0.3-1.5
					c0.2-1,0.5-2,0.9-2.9c-0.1,1-0.3,2-0.4,3c-0.1,0.5-0.1,1-0.1,1.5s0,1,0.2,1.3c0,0.1,0.1,0.1,0.1,0.1l0,0c0.1,0,0.3-0.1,0.4-0.3
					c0.3-0.3,0.6-0.7,0.9-1c0.6-0.8,1.1-1.6,1.7-2.5c0.6-0.8,1.2-1.7,2-2.4s1.6-1.3,2.5-1.8c0.1-0.1,0.3-0.1,0.5-0.2
					c0.2,0,0.3,0,0.5,0c0.3,0.1,0.6,0.2,0.8,0.3c0.5,0.3,0.9,0.6,1.3,0.9C420.9,212.6,421.6,213.3,422.2,214.1z"/>
			</g>
			<path class="st4" d="M422.6,183.9c0,2.8,0.1,5.5,0.4,8.3c0.7,6.7,0,15.6,0.5,17.3c0.6,1.8,4.1,8.4,4.1,8.4s6.3-2.9,8.9-6
				s6-3.3,10.6-7.9s7.7-12,6.7-18.1c-0.1-0.8-0.9-8.6-1.1-16.7c-0.2-8.1-8.7-14.2-16.8-14.2c-8.1,0-12.9,12-13.2,20.1
				C422.6,178.3,422.5,181.4,422.6,183.9z"/>
			<path class="st5" d="M452.6,169.1c0.2,8.1,1,15.9,1.1,16.7c0.3,1.9,0.2,3.9-0.2,5.9c-1.8,0.3-24.8,0.9-30.8-1.9
				c-0.1-2-0.2-3.9-0.2-5.9c0-2.5,0-5.6,0.1-9s1-7.6,2.7-11.2l19-6.7C449,159.5,452.5,163.9,452.6,169.1z"/>
		</g>
		<g>
			<path class="st8" d="M408.4,135.4c-12.3,0-16.8,9.4-16.8,16.5c0,6.3,2,16.5,16.8,16.5c7.4,0,12.4-7.4,12.4-16.5
				C420.8,142.8,415.8,135.4,408.4,135.4z"/>
			<path class="st9" d="M407.8,139.4c-9.3,0-12.7,7.1-12.7,12.4c0,4.8,1.5,12.4,12.7,12.4c5.6,0,9.4-5.6,9.4-12.4
				C417.2,145,413.4,139.4,407.8,139.4z"/>
			<path class="st4" d="M392.9,140.9c0.7,4.3,2.8,5.9,3.8,11.7c0.9,5.8-1.6,14.2,2.2,21.5c3.8,7.3,9.9,17,13.4,17.4
				s31.8-4.4,41.3-23.3c2.7-5.4,8.6-26.8,3.6-39.8s-13.1-25-31.9-25.3C406.4,102.8,389.1,118.2,392.9,140.9z"/>
			<path class="st5" d="M408.6,164.4c1,0,2.1-0.4,2.6-1c0.4-0.6,0.6-1.3,0.5-2c-1.5,1.2-3.3,1.4-5.1,1.1
				C406.4,163.8,407.5,164.4,408.6,164.4z"/>
			<path class="st10" d="M441.9,140.9c-0.7-4.5-3.7-7-3.7-7s-7.2-3-12.7-3.5c-5.6-0.5-11.3-2.2-11.3-2.2s1.8,4.5,4.7,6.4
				c0,0-13.3-0.7-17.5-4.6c0,0,0.8,3.2,1.6,5.4c0,0-6.5-0.7-8.5-3.2c0,0-1.6,5.7-1.6,8.8c0,0-7.8-10.7-5.8-19.2s4.7-11.8,4.7-11.8
				s-5.6,0.5-8.7,0c0,0,7.2-6.3,12.7-10.5c5.4-4.2,21.7-4.3,21.7-4.3s-1.3-4.3,0.2-11.2c0,0,7,10.2,14.3,13.3s6.4,2.9,14.2,4.8
				c7.8,2,15.2,7,18.4,11.2c3.1,4.2,6.5,8.5,8.5,9.2c0,0-4.9-0.7-7.3-2.7c0,0,4.1,9.2-1.3,21.1c-5.4,11.9-18.9,8.4-21.5,5.8
				C440.3,144.1,441.9,140.9,441.9,140.9z"/>
			<path class="st10" d="M442.9,146.7c-2.6-2.6-1-5.8-1-5.8c-0.4-2.7-1.7-4.7-2.6-5.9c2-11.9,1.2-24.2-2.3-35.7c2,0.8,3.2,1.2,6.2,2
				c3.6,5.4,6.3,11.5,8.2,17.7c2.4,7.9,3.5,16.4,1.3,24.3c-0.6,2-1.4,4-2.4,5.9C446.8,149,444,147.8,442.9,146.7z"/>
			<path class="st8" d="M446.6,136.5c0,0,0.9-29.7-14.7-39.2c0,0,12.1-1.4,19,10.7s6.4,22.4,6.3,28.2
				C457,142,446.6,136.5,446.6,136.5z"/>
			<path class="st8" d="M451.4,135.4c12.3,0,16.8,9.4,16.8,16.5c0,6.3-2,16.5-16.8,16.5c-7.4,0-12.4-7.4-12.4-16.5
				C439,142.8,444,135.4,451.4,135.4z"/>
			<path class="st9" d="M444.8,151.8c0-8.1,5.3-14.6,11.9-14.6s11.5,6.5,11.5,14.6s-5,14.6-11.5,14.6
				C450.1,166.5,444.8,159.9,444.8,151.8z"/>
			<ellipse class="st8" cx="458.2" cy="151.8" rx="8.1" ry="9.9"/>
			<g>
				<path class="st5" d="M420.3,168.3c-3.3,1.8-14.1,2.4-14.9,2.3c-0.7-0.1,0.8,8.1,3.4,8.4s7.9-0.4,10.2-2.5
					C421.3,174.4,420.3,168.3,420.3,168.3z"/>
				<path class="st11" d="M419.6,170.7c-0.2-0.7-0.4-1.3-0.5-1.9c-3.6,1.2-10.8,1.8-13,1.8c0.2,1.1,0.5,2.2,0.9,3.3
					c0.1,0,0,0.1,0.1,0.1C411.9,174.8,416.7,173.2,419.6,170.7z"/>
			</g>
			<path class="st12" d="M418.9,148.7c0-1.5,0.7-2.7,1.7-2.7c0.9,0,1.7,1.2,1.7,2.7s-0.7,2.7-1.7,2.7S418.9,150.2,418.9,148.7z"/>
			<path class="st12" d="M400,149.9c0-1.5,0.6-2.7,1.4-2.7s1.4,1.2,1.4,2.7s-0.6,2.7-1.4,2.7C400.6,152.7,400,151.4,400,149.9z"/>
			<path class="st12" d="M428.1,138.1c-1.1-0.6-2.3-1-3.6-1.4c-1.3-0.3-2.5-0.5-3.9-0.6c-1.3-0.1-2.7-0.1-4,0.4
				c-1.3,0.4-2.4,1.2-3.3,2.3l0.1,0.2c1.4-0.1,2.5-0.5,3.7-0.6c1.2-0.2,2.3-0.6,3.5-0.7c2.4-0.2,4.9,0,7.3,0.7L428.1,138.1z"/>
			<path class="st12" d="M395.2,141.6c0.6-0.2,1.2-0.4,1.8-0.4c0.6-0.1,1.2-0.1,1.8-0.1c0.6,0,1.2,0.2,1.8,0.1
				c0.3-0.1,0.6-0.1,0.9-0.3c0.3-0.1,0.6-0.2,1-0.5v-0.2c-0.6-0.6-1.3-0.8-1.9-0.9c-0.7-0.1-1.4,0.1-2,0.3c-0.7,0.2-1.3,0.4-1.9,0.7
				s-1.2,0.7-1.7,1.2L395.2,141.6z"/>
		</g>
		<g>
			<path class="st8" d="M414.3,336.4c0,0.4-0.6,1-2,1s-40.1,0-45.3,0c-5.2,0-6.4-2.1-4.9-4.7c1.6-2.6,8.2-8.4,24.5-12.4
				c16.4-4,25,5.4,27.6,9.6C416.3,333,414.3,336.4,414.3,336.4z"/>
			<path class="st9" d="M361.7,333.5c0.9,3,35.5,1.4,35.5,1.4s-3.5-4.7-7.4-4.9c-3.9-0.1-5.8,1.2-11,2.1s-1.3-2.1-1.3-2.1
				s-3.7-0.8-5.2-2c0,0,8.6-2.5,12.2-3.1s12.7-0.2,13.9,0c0.8,0.1,5-2.3,10.1-1.1c2.8,2.1,4.7,4.4,5.7,6c2,3.1,0,6.4,0,6.4
				c0,0.4-0.6,1-2,1s-40.1,0-45.3,0C362.3,337.4,360.9,335.7,361.7,333.5z"/>
			<path class="st4" d="M509.6,308.1c0,0-32.2,5-49.7,8.1c-16.5,3-30.8,4.2-34.9,3.5c-4-0.8-17.9-5.9-22.3-7.7s-13.3-2.9-17.9-1.4
				c-4.6,1.4-8.3,3-10.1,3s-1.5,3,1,3.6c2.4,0.6,4.6,0.5,4.6,0.5s-8.3,4.5-9.7,5s0.3,3.1,2.3,3c0,0-1.8,1-1.1,2.1c0.6,1,5,1,5,1
				s-5.3,2.6-0.9,3.7c4.4,1,9.7-3.9,11.9-4.4c2.2-0.4,7.2-0.2,9.7,1.7c2.4,1.8,12.9,10.3,27.2,5.2c0,0,96.9,3.9,106.6,3.9
				s15.5-8.5,12.4-25s-9.1-28.7-9.1-28.7l-33.4,2.4L509.6,308.1z"/>
			<g>
				<path class="st5" d="M387.9,315c0.9-0.2,1.5-0.3,2-0.3C389.8,314.6,389,314.8,387.9,315z"/>
				<path class="st5" d="M380.2,317.6c0,0-2.2,0.1-4.6-0.5c-0.7-0.2-1.2-0.5-1.6-1c2.7,1.2,6,0.4,7.9,0c1.2-0.3,4-0.8,5.9-1.1
					C385.9,315.4,383.1,316.3,380.2,317.6z"/>
			</g>
			<g>
				<path class="st5" d="M380.7,321.5c0.2-0.1,0.4-0.2,0.5-0.2C381.2,321.3,381,321.4,380.7,321.5z"/>
				<path class="st5" d="M370.5,324.5c0,0,1,0.9,3,0c1.7-0.7,5.7-2.4,7.2-3c-1.8,0.8-6.6,3.5-7.9,4
					C371.9,325.6,371,325.1,370.5,324.5z"/>
			</g>
			<path class="st5" d="M375.5,327.7c1.5-0.4,4.6-2.3,6.5-3.2c1.9-0.9,4.3-1,4.3-1s-0.7,0.1-2.6,1s-7.1,4.2-7.1,4.2s-2.8,0-4.2-0.5
				C372.4,328.1,374,328.1,375.5,327.7z"/>
			<path class="st5" d="M403.1,329.8c2.7,1.7,10.8,3.9,15.7,3c4.8-0.9,5.9-5,5.9-5l1.3,4.4c0,0,67.2,1.9,80.9,1.3
				c13.5-0.6,34.6-0.9,37.3-9c-0.8,9.4-5.9,14.3-13.1,14.3c-9.7,0-106.6-3.9-106.6-3.9c-14.3,5-24.7-3.4-27.2-5.2
				c-2-1.5-5.9-2-8.3-1.8l0,0C392.7,326.5,400.3,328.1,403.1,329.8z"/>
			<path class="st5" d="M509.6,308.1c0,0,12.6-1.7,15.1-2l-1.9-7.8l-15.9,3.2L509.6,308.1z"/>
			<path class="st6" d="M543.2,286.1c0.5,1.2,0.2,2.6-0.8,3.5c-5.9,5.7-13.5,13.5-21.4,14.7c-8.6,1.3-23,1.8-23.8,0
				s-3.7-25.1-8.9-36.8c-5.2-11.8-8.6-17.8-9.9-24.5c-1.3-6.8,10.4-22.7,15.7-24c5.2-1.3,17.2-2.1,22.2,2.4
				c5,4.4,8.6,21.4,14.4,34.2C535.3,265.8,541.1,280.8,543.2,286.1z"/>
			<g>
				<path class="st6" d="M510.9,218.7c-1.6-0.2-3.2-0.3-4.8-0.4s-3.2-0.1-4.8,0s-3.2,0.3-4.7,0.5c-0.8,0.1-1.6,0.3-2.3,0.5
					c-0.7,0.3-1.5,0.5-2.1,0.9c-0.7,0.3-1.3,0.8-2,1.2c-0.6,0.5-1.2,1-1.7,1.6c-1.1,1.1-2.1,2.3-3.1,3.6s-1.8,2.6-2.6,4
					s-1.6,2.8-2.3,4.2c1.1-3,2.6-5.9,4.4-8.6c0.9-1.3,1.9-2.6,3.1-3.8c0.5-0.6,1.2-1.1,1.8-1.7c0.7-0.5,1.3-1,2.1-1.4
					c0.7-0.4,1.5-0.7,2.3-0.9s1.6-0.4,2.4-0.5c1.6-0.2,3.2-0.4,4.9-0.4C504.5,217.6,507.7,218,510.9,218.7z"/>
			</g>
			<path class="st6" d="M536.7,290.9c0-4.2-8.9-42.4-16.6-63.7l0,0c3.3,7.3,6.4,18.9,10.6,28.3c4.6,10.3,10.5,25.2,12.5,30.6
				c0.5,1.2,0.2,2.6-0.8,3.5c-2.2,2.2-4.8,4.7-7.4,7C535.2,296.4,536.7,294.8,536.7,290.9z"/>
		</g>
	</g>
	<g>
		<g>
			<g>
				<path class="st13" d="M116.6,247.9c-0.2,1.3,0.1,2.6,0.7,3.7c2.3,4.1,3.4,8.9,3.3,13.6c-0.1,3.1-0.7,6.3,0.1,9.3
					c1.5,5.2,6.9,8.4,8.7,13.5c1.6,4.5,0.1,10.2,3.3,13.7c0.8,0.9,2,1.5,3.1,1.1c0.6-0.2,1-0.7,1.4-1.1c3.7-4.2,7.7-9.3,6.5-14.8
					c-1.1-5.2-6.4-8.7-7.4-13.8c-0.8-4.2,1.3-9.1-1.1-12.7c-0.7-1-1.6-1.7-2.4-2.7c-2.9-3.7-1.8-9.6-5.1-12.9
					c-1.1-1.1-2.4-1.7-3.9-2C120.4,241.9,117.1,244.3,116.6,247.9L116.6,247.9z"/>
			</g>
			<g>
				<path class="st14" d="M137.7,313.5c0.2-2.8,0.3-5.5,0.4-8.3c-0.1-2.8-0.3-5.5-0.5-8.3s-0.5-5.5-1-8.2s-1.1-5.5-2.3-8.1
					c-2-5.1-3.6-10.3-5.2-15.6l-2.4-7.9c-1-2.6-1.9-5.2-2.8-7.8c0.4,2.7,1,5.4,1.6,8.1l2.4,7.9c1.6,5.3,3.2,10.5,5.3,15.7
					c1.1,2.5,1.7,5.1,2.2,7.8c0.5,2.7,0.8,5.4,1,8.1s0.4,5.5,0.5,8.2L137.7,313.5z"/>
				<path class="st14" d="M123.2,257.6c0.5,0.7,1,1.2,1.7,1.7c0.3,0.2,0.7,0.4,1.1,0.5c0.4,0.2,0.7,0.4,1,0.7l0.1,0.1l0.1-0.2
					c0.3-0.4,0.6-0.8,0.8-1.2c0.2-0.4,0.5-0.8,0.7-1.2c0.4-0.9,0.7-1.8,0.9-2.8h-0.1c-0.7,0.7-1.2,1.5-1.7,2.4
					c-0.2,0.4-0.4,0.9-0.6,1.3s-0.3,0.9-0.4,1.4l0.2-0.1c-0.3-0.2-0.6-0.4-0.9-0.7c-0.3-0.3-0.5-0.6-0.8-0.8
					C124.7,258.2,124,257.8,123.2,257.6L123.2,257.6z"/>
				<path class="st14" d="M123.9,267.1c0.5,0.4,1,0.8,1.5,1.2c0.5,0.4,1,0.7,1.6,1s1.2,0.5,1.7,0.8s1,0.7,1.5,1.1l0.2,0.1l0.2-0.2
					c0.8-1,1.4-2,2-3.1s1.1-2.2,1.5-3.4H134c-0.8,0.9-1.5,2-2.2,3c-0.6,1.1-1.2,2.2-1.6,3.3l0.3-0.1c-0.6-0.3-1.1-0.5-1.7-0.9
					c-0.5-0.4-1-0.8-1.5-1.2c-0.5-0.4-1.1-0.7-1.6-1C125.1,267.4,124.5,267.1,123.9,267.1L123.9,267.1z"/>
				<path class="st14" d="M127.2,279.5c0.5,0.5,1.1,0.9,1.7,1.3c0.6,0.4,1.2,0.6,1.9,0.8c0.7,0.2,1.3,0.5,1.9,0.9
					c0.6,0.4,1.1,0.9,1.6,1.2l0.4,0.3l0.3-0.5c0.5-0.7,0.9-1.4,1.2-2.2c0.3-0.8,0.6-1.5,0.8-2.4l-0.1-0.1c-0.6,0.6-1.1,1.3-1.6,1.9
					c-0.5,0.7-0.8,1.4-1.2,2.2l0.7-0.2c-0.6-0.3-1.3-0.5-2-0.8c-0.7-0.2-1.3-0.6-1.8-1c-0.5-0.5-1.1-0.8-1.8-1.1
					C128.7,279.7,128,279.5,127.2,279.5L127.2,279.5z"/>
			</g>
		</g>
		<g>
			<g>
				<path class="st13" d="M142.1,314c2.2-0.4,10.2-2.9,9.7-5c-2.4-9.1-4.8-19.3,3.5-23.7c4-2.1,9.1-3.2,11.4-7.2
					c2.4-4.1,0.6-9.2-1.5-13.4c-2.1-4.2-4.7-8.7-3.8-13.3c1-4.8,5.5-8.4,6.2-13.3c1-6.6-5.5-12-11.7-14.6c-2.1-0.9-4.4-1.6-6.6-1.1
					c-1.6,0.4-3,1.4-4.1,2.6c-4.4,4.9-4.2,12.2-3.2,18.7s2.5,13.3,0.1,19.3c-1.7,4.3-5.4,8.4-4.4,12.9c0.4,1.8,1.5,3.4,2,5.2
					c1.2,4.9-2.9,9.3-4.7,13.9c-2.4,6-0.8,13.3,3.8,17.9C139.7,313.8,140.9,314.2,142.1,314L142.1,314z"/>
			</g>
			<g>
				<path class="st14" d="M141.4,314.1c0.5-3.6,1-7.2,1.6-10.7c0.2-0.9,0.3-1.8,0.5-2.7c0.1-0.9,0.2-1.8,0.4-2.7
					c0.3-1.8,0.6-3.5,0.9-5.3c0.7-3.5,1.5-7,2.7-10.3c0.6-1.7,1.3-3.3,2.3-4.7c0.5-0.7,1-1.3,1.6-1.7c0.8-0.5,1.6-1.2,2.2-2
					c1.2-1.6,1.6-3.7,1.6-5.6s-0.4-3.7-0.8-5.5c-0.8-3.6-1.9-7-2.5-10.5s-0.7-7,0.2-10.4c0.3-0.8,0.5-1.6,0.8-2.5
					c0.3-0.8,0.6-1.6,1-2.4c0.8-1.6,1.9-3,3-4.4c-1.4,1.1-2.7,2.4-3.8,3.9c-0.6,0.7-1.1,1.5-1.5,2.4c-0.5,0.8-0.8,1.7-1,2.6
					c-1,3.7-0.9,7.5-0.2,11.1c0.6,3.6,1.7,7.1,2.5,10.6c0.4,1.7,0.7,3.5,0.8,5.2c0,1.7-0.3,3.4-1.2,4.6c-0.5,0.6-1.1,1.2-1.8,1.6
					c-0.9,0.6-1.5,1.4-2.1,2.2c-1.1,1.6-1.8,3.3-2.4,5c-1.2,3.5-2.1,7-2.8,10.6c-0.3,1.8-0.6,3.6-0.9,5.4c-0.1,0.9-0.3,1.8-0.4,2.7
					c-0.1,0.9-0.1,1.8-0.2,2.7C141.4,306.9,141.3,310.5,141.4,314.1z"/>
				<path class="st14" d="M155.7,243.5c-0.6,0.2-1.1,0.6-1.6,1s-0.9,0.8-1.3,1.3c-0.3,0.5-0.6,1.1-1.1,1.5c-0.4,0.4-0.9,0.8-1.4,1.2
					h0.6c-0.2-0.5-0.5-0.9-0.7-1.3c-0.3-0.4-0.5-0.9-0.8-1.3s-0.6-0.8-0.9-1.2c-0.3-0.4-0.7-0.8-0.9-1.2h-0.1c0,0.6,0.1,1.1,0.3,1.6
					s0.4,1,0.7,1.4c0.2,0.5,0.5,0.9,0.8,1.3s0.6,0.8,1,1.2l0.4,0.4l0.2-0.4c0.3-0.5,0.6-1.1,1-1.5c0.4-0.5,0.9-0.8,1.4-1.2
					s0.9-0.8,1.3-1.3C155.1,244.6,155.4,244.1,155.7,243.5L155.7,243.5z"/>
				<path class="st14" d="M147.8,257.2c0.3,0.6,0.6,1.2,1,1.7s0.8,1,1.2,1.5c0.5,0.4,1,0.8,1.5,1.2c0.5,0.4,0.9,0.9,1.3,1.4l0.1,0.2
					l0.2-0.1c0.7-0.5,1.2-1,1.7-1.5c0.5-0.6,1-1.1,1.5-1.7s0.9-1.2,1.3-1.8c0.4-0.6,0.8-1.3,1.2-1.8l-0.1-0.1
					c-0.7,0.3-1.3,0.9-1.8,1.4s-1,1.1-1.5,1.6c-0.5,0.6-0.9,1.2-1.3,1.8c-0.4,0.6-0.8,1.3-1.2,1.8h0.3c-0.5-0.4-0.9-0.9-1.3-1.4
					c-0.4-0.5-0.7-1.1-1.1-1.6c-0.4-0.5-0.9-0.9-1.3-1.4C149,257.9,148.5,257.5,147.8,257.2L147.8,257.2z"/>
				<path class="st14" d="M162.2,267.8c-0.7,0.8-1.4,1.5-2.1,2.2c-0.7,0.7-1.5,1.3-2.3,2s-1.6,1.2-2.6,1.5s-2,0.3-3,0.3l0.4,0.3
					c-0.2-0.8-0.4-1.6-0.7-2.4s-0.6-1.6-1-2.3c-0.4-0.7-0.9-1.5-1.5-2.1s-1.3-1.2-2.1-1.5l-0.1,0.1c0.6,0.6,1.1,1.2,1.5,1.9
					c0.4,0.7,0.8,1.4,1.1,2.1l1,2.2c0.3,0.7,0.6,1.5,0.9,2.3l0.1,0.4h0.3c1.1-0.2,2.1-0.5,3.1-0.9s2-0.7,2.9-1.2
					c1-0.5,1.8-1.2,2.5-2C161.5,269.8,162,268.9,162.2,267.8L162.2,267.8z"/>
				<path class="st14" d="M142.8,275.9c-0.3,0.8-0.4,1.7-0.4,2.5c0,0.9,0.2,1.7,0.5,2.5s0.8,1.5,1.3,2.2l1.5,2l0.1,0.1l0.2-0.1
					c0.8-0.6,1.7-1,2.6-1.5c0.9-0.5,1.8-0.9,2.7-1.3s1.8-0.8,2.8-1.1c0.9-0.4,1.9-0.7,2.9-1.1V280c-2.1,0-4.2,0.4-6.1,1.2
					c-1,0.4-1.9,1-2.7,1.5c-0.9,0.6-1.6,1.3-2.4,2h0.3c-0.6-0.6-1.1-1.2-1.4-2c-0.4-0.7-0.5-1.5-0.8-2.3c-0.5-1.5-0.8-3-0.9-4.7
					L142.8,275.9z"/>
			</g>
		</g>
		<g>
			<g>
				<g>
					<path class="st15" d="M127.5,337.4h23.1c2.1,0,4-1.8,4.3-4.4l3.6-28.4c0.4-3.1-1.6-5.9-4.3-5.9h-30.4c-2.7,0-4.7,2.8-4.3,5.9
						l3.6,28.4C123.5,335.6,125.3,337.4,127.5,337.4z"/>
				</g>
			</g>
			<path class="st15" d="M123.8,298.8h15.5c-2.7,0-4.7,2.8-4.3,5.9l3.6,28.4c0.3,2.5,2.1,4.4,4.3,4.4h-15.5c-2.1,0-4-1.8-4.3-4.4
				l-3.6-28.4C119.1,301.6,121.2,298.8,123.8,298.8z"/>
		</g>
	</g>
	<g>
		<g>
			<path class="st16" d="M334,329.6h-96.4c-1,0-1.8,0.8-1.8,1.8v4.3c0,1,0.8,1.8,1.8,1.8H334V329.6z"/>
			<path class="st8" d="M358.8,335v1.7c0,0.4-0.3,0.7-0.7,0.7h-24.3c-0.8,0-1.4-0.6-1.4-1.4v-5c0-0.8,0.7-1.5,1.5-1.4l24.2,4.7
				C358.6,334.4,358.8,334.6,358.8,335z"/>
		</g>
		<g>
			<g>
				<path class="st8" d="M165.5,165.7h180.2c3.6,0,6.9,2.3,8.1,5.7l39.4,109.5c1.6,5.6-2.5,9.9-9.1,10.6c-1,0.1-5.9-2.1-13.5-5.6
					h-161c-3.6,0-6.9-2.3-8.1-5.7l-35.6-98.9c-6-3.1-9.5-4.9-9.5-4.9S154.1,165.7,165.5,165.7z"/>
				<path class="st9" d="M340.1,171.4H159.8c-2.6,0-4.3,2.5-3.5,4.9l39.4,109.5c1.2,3.4,4.5,5.7,8.1,5.7H384c2.6,0,4.3-2.5,3.5-4.9
					l-39.4-109.5C347,173.6,343.7,171.4,340.1,171.4z"/>
				<polygon class="st16" points="299.4,291.5 291.4,261.8 261.1,291.5 				"/>
				<path class="st8" d="M255.5,209.8c0.8,4.9,4,6.9,7.8,6.9s6.6-3.1,6-6.9c-0.7-3.7-4-6.9-7.8-6.9S254.9,206.1,255.5,209.8z"/>
				<g>
					<polygon class="st16" points="340.2,273.3 337.9,266.8 340.8,266.8 343.1,273.3 					"/>
					<polygon class="st16" points="334.1,273.3 331.8,266.8 334.7,266.8 337,273.3 					"/>
					<polygon class="st16" points="327.9,273.3 325.6,266.8 328.5,266.8 330.9,273.3 					"/>
					<polygon class="st16" points="321.8,273.3 319.5,266.8 322.4,266.8 324.7,273.3 					"/>
				</g>
				<g>
					<polygon class="st16" points="234.7,273.3 232.4,266.8 235.3,266.8 237.6,273.3 					"/>
					<polygon class="st16" points="228.5,273.3 226.2,266.8 229.1,266.8 231.4,273.3 					"/>
					<polygon class="st16" points="222.4,273.3 220.1,266.8 223,266.8 225.3,273.3 					"/>
					<polygon class="st16" points="216.3,273.3 213.9,266.8 216.9,266.8 219.2,273.3 					"/>
				</g>
			</g>
			<g>
				<path class="st9" d="M238.5,326.8c1.8-5.1,23.3-74.7,23.3-74.7h27.7l1.8,9.7c0,0-18.6,59.9-20.3,65c-0.1,0.4-0.3,0.8-0.4,1.2
					l0,0c-1.6,5,2.7,5,7.5,5s48.8,0,48.8,0v4.4h-48.8h-32.5C235.9,337.4,236.7,331.9,238.5,326.8z"/>
				<path class="st8" d="M289.6,252.1c0,0-21.6,69.6-23.3,74.7c-1.8,5.1-2.7,10.6,7.1,10.6h-32.5c-9.8,0-8.9-5.5-7.1-10.6
					s23.3-74.7,23.3-74.7L289.6,252.1L289.6,252.1z"/>
				<path class="st17" d="M282.8,252.1c-2.1-0.1-4.3-0.1-6.4-0.2s-4.3-0.1-6.4-0.1s-4.3-0.1-6.4-0.1h-6.4h-0.4l-0.1,0.3
					c-0.9,2.8-1.8,5.6-2.6,8.4l-2.6,8.4c-1.7,5.6-3.3,11.3-4.8,17c2-5.5,3.8-11.1,5.7-16.7l2.7-8.4c0.9-2.8,1.8-5.6,2.6-8.4
					l-0.5,0.3h6.4c2.1,0,4.3-0.1,6.4-0.1s4.3-0.1,6.4-0.1C278.5,252.3,280.6,252.2,282.8,252.1z"/>
			</g>
		</g>
	</g>
	<g>
		<path class="st18" d="M94.2,354.5h477.3c4.7,0,8.5-3.8,8.5-8.5l0,0c0-4.7-3.8-8.5-8.5-8.5H94.2c-4.7,0-8.5,3.8-8.5,8.5l0,0
			C85.6,350.7,89.5,354.5,94.2,354.5z"/>
		<path class="st18" d="M94.2,354.5h477.3c4.7,0,8.5-3.8,8.5-8.5l0,0H85.6l0,0C85.6,350.7,89.5,354.5,94.2,354.5z"/>
	</g>
</g>
</svg>
