<?xml version="1.0" encoding="UTF-8"?>
<svg width="14px" height="14px" viewBox="0 0 14 14" version="1.1" xmlns="http://www.w3.org/2000/svg" xmlns:xlink="http://www.w3.org/1999/xlink">
    <title>Slice</title>
    <g id="Page-1" stroke="none" stroke-width="1" fill="none" fill-rule="evenodd">
        <g id="" fill="#FFFFFF" fill-rule="nonzero">
            <path d="M13.8597194,6.43478261 C13.9532398,6.53140097 14,6.64251208 14,6.76811594 C14,6.89371981 13.9532398,7.00483092 13.8597194,7.10144928 L7.32264529,13.8550725 C7.22912492,13.9516908 7.12157649,14 7,14 C6.87842351,14 6.77087508,13.9516908 6.67735471,13.8550725 L0.140280561,7.10144928 C0.046760187,7.00483092 0,6.89371981 0,6.76811594 C0,6.64251208 0.046760187,6.53140097 0.140280561,6.43478261 L0.841683367,5.71014493 C0.935203741,5.61352657 1.04275217,5.56521739 1.16432866,5.56521739 C1.28590514,5.56521739 1.39345357,5.61352657 1.48697395,5.71014493 L7,11.4057971 L12.5130261,5.71014493 C12.6065464,5.61352657 12.7140949,5.56521739 12.8356713,5.56521739 C12.9572478,5.56521739 13.0647963,5.61352657 13.1583166,5.71014493 L13.8597194,6.43478261 Z M13.8597194,0.869565217 C13.9532398,0.966183575 14,1.07729469 14,1.20289855 C14,1.32850242 13.9532398,1.43961353 13.8597194,1.53623188 L7.32264529,8.28985507 C7.22912492,8.38647343 7.12157649,8.43478261 7,8.43478261 C6.87842351,8.43478261 6.77087508,8.38647343 6.67735471,8.28985507 L0.140280561,1.53623188 C0.046760187,1.43961353 0,1.32850242 0,1.20289855 C0,1.07729469 0.046760187,0.966183575 0.140280561,0.869565217 L0.841683367,0.144927536 C0.935203741,0.0483091787 1.04275217,1.15786765e-13 1.16432866,1.15786765e-13 C1.28590514,1.15786765e-13 1.39345357,0.0483091787 1.48697395,0.144927536 L7,5.84057971 L12.5130261,0.144927536 C12.6065464,0.0483091787 12.7140949,1.15786765e-13 12.8356713,1.15786765e-13 C12.9572478,1.15786765e-13 13.0647963,0.0483091787 13.1583166,0.144927536 L13.8597194,0.869565217 Z" id="Shape"></path>
        </g>
    </g>
</svg>