<?xml version="1.0" encoding="UTF-8"?>
<svg width="20px" height="14px" viewBox="0 0 20 14" version="1.1" xmlns="http://www.w3.org/2000/svg" xmlns:xlink="http://www.w3.org/1999/xlink">
    <title>ic_backArrow</title>
    <g id="**Assets**" stroke="none" stroke-width="1" fill="none" fill-rule="evenodd">
        <path d="M13.0128865,0.164999715 C12.7920764,0.385353602 12.7920764,0.742808702 13.0128865,0.962454056 L18.4972842,6.43587456 L0.565160283,6.43587456 C0.253115127,6.43587456 0,6.68811245 0,6.99986715 C0,7.31091331 0.253115127,7.56385974 0.565160283,7.56385974 L18.4972842,7.56385974 L13.0132415,13.0372802 C12.7924314,13.2569256 12.7924314,13.6143807 13.0132415,13.8347346 C13.2336966,14.0550885 13.5915368,14.0550885 13.8123469,13.8347346 L19.5345948,8.12324685 C19.8349249,7.82389149 20,7.42498719 20,6.99986715 C20,6.57439284 19.8345699,6.17584281 19.5342398,5.87577891 L13.8119919,0.164999715 C13.5911818,-0.0549999051 13.2333416,-0.0549999051 13.0128865,0.164999715 Z" id="ic_backArrow" fill="#00AF10" fill-rule="nonzero" transform="translate(10.000000, 7.000000) rotate(-180.000000) translate(-10.000000, -7.000000) "></path>
    </g>
</svg>