<?xml version="1.0" encoding="UTF-8"?>
<svg width="18px" height="35px" viewBox="0 0 18 35" version="1.1" xmlns="http://www.w3.org/2000/svg" xmlns:xlink="http://www.w3.org/1999/xlink">
    <title>Slice</title>
    <g id="Page-1" stroke="none" stroke-width="1" fill="none" fill-rule="evenodd">
        <g id="" fill="#010040" fill-rule="nonzero">
            <path d="M18.2232666,23.1445312 C18.2232666,25.1367188 17.5754801,26.8522135 16.2799072,28.2910156 C14.9843343,29.7298177 13.3013916,30.6184896 11.2310791,30.9570312 L11.2310791,34.375 C11.2310791,34.5572917 11.1724854,34.7070312 11.0552979,34.8242188 C10.9381104,34.9414062 10.7883708,35 10.6060791,35 L7.96936035,35 C7.80008952,35 7.65360514,34.938151 7.52990723,34.8144531 C7.40620931,34.6907552 7.34436035,34.5442708 7.34436035,34.375 L7.34436035,30.9570312 C6.48498535,30.8398438 5.65490723,30.6380208 4.85412598,30.3515625 C4.05334473,30.0651042 3.39253743,29.7753906 2.8717041,29.4824219 C2.35087077,29.1894531 1.86909993,28.8769531 1.4263916,28.5449219 C0.983683268,28.2128906 0.680948893,27.96875 0.518188477,27.8125 C0.35542806,27.65625 0.241495768,27.5390625 0.176391602,27.4609375 C-0.0449625651,27.1875 -0.0579833984,26.9205729 0.137329102,26.6601562 L2.14904785,24.0234375 C2.24019368,23.8932292 2.38993327,23.8151042 2.5982666,23.7890625 C2.7935791,23.7630208 2.9498291,23.8216146 3.0670166,23.9648438 C3.0670166,23.9648438 3.08003743,23.9778646 3.1060791,24.0039062 C4.57743327,25.2929688 6.15946452,26.1067708 7.85217285,26.4453125 C8.33394368,26.5494792 8.81571452,26.6015625 9.29748535,26.6015625 C10.3521729,26.6015625 11.2799072,26.3216146 12.0806885,25.7617188 C12.8814697,25.2018229 13.2818604,24.4075521 13.2818604,23.3789062 C13.2818604,23.0143229 13.1842041,22.6692708 12.9888916,22.34375 C12.7935791,22.0182292 12.5754801,21.7447917 12.3345947,21.5234375 C12.0937093,21.3020833 11.7128499,21.0579427 11.1920166,20.7910156 C10.6711833,20.5240885 10.2414958,20.3157552 9.9029541,20.1660156 C9.56441243,20.016276 9.0435791,19.8046875 8.3404541,19.53125 C7.8326416,19.3229167 7.43225098,19.1601562 7.13928223,19.0429688 C6.84631348,18.9257812 6.44592285,18.7532552 5.93811035,18.5253906 C5.43029785,18.297526 5.02339681,18.0957031 4.71740723,17.9199219 C4.41141764,17.7441406 4.0435791,17.5130208 3.6138916,17.2265625 C3.1842041,16.9401042 2.83589681,16.6634115 2.56896973,16.3964844 C2.30204264,16.1295573 2.01883952,15.8105469 1.71936035,15.4394531 C1.41988118,15.0683594 1.18876139,14.6907552 1.02600098,14.3066406 C0.86324056,13.922526 0.72652181,13.4895833 0.615844727,13.0078125 C0.505167643,12.5260417 0.449829102,12.0182292 0.449829102,11.484375 C0.449829102,9.6875 1.08784993,8.11197917 2.3638916,6.7578125 C3.63993327,5.40364583 5.30008952,4.53125 7.34436035,4.140625 L7.34436035,0.625 C7.34436035,0.455729167 7.40620931,0.309244792 7.52990723,0.185546875 C7.65360514,0.0618489583 7.80008952,0 7.96936035,0 L10.6060791,0 C10.7883708,0 10.9381104,0.05859375 11.0552979,0.17578125 C11.1724854,0.29296875 11.2310791,0.442708333 11.2310791,0.625 L11.2310791,4.0625 C11.9732666,4.140625 12.6926676,4.29036458 13.3892822,4.51171875 C14.0858968,4.73307292 14.6523031,4.95117188 15.088501,5.16601562 C15.5246989,5.38085938 15.9381104,5.625 16.3287354,5.8984375 C16.7193604,6.171875 16.9732666,6.36067708 17.0904541,6.46484375 C17.2076416,6.56901042 17.3052979,6.66015625 17.3834229,6.73828125 C17.604777,6.97265625 17.6373291,7.22005208 17.4810791,7.48046875 L15.8990479,10.3320312 C15.7948812,10.5273438 15.6451416,10.6315104 15.4498291,10.6445312 C15.2675374,10.6835938 15.0917562,10.6380208 14.9224854,10.5078125 C14.8834229,10.46875 14.7890218,10.390625 14.6392822,10.2734375 C14.4895426,10.15625 14.2356364,9.98372396 13.8775635,9.75585938 C13.5194906,9.52799479 13.1386312,9.31966146 12.7349854,9.13085938 C12.3313395,8.94205729 11.8463135,8.77278646 11.2799072,8.62304688 C10.713501,8.47330729 10.1568604,8.3984375 9.60998535,8.3984375 C8.37300618,8.3984375 7.3638916,8.67838542 6.5826416,9.23828125 C5.8013916,9.79817708 5.4107666,10.5208333 5.4107666,11.40625 C5.4107666,11.7447917 5.46610514,12.0572917 5.57678223,12.34375 C5.68745931,12.6302083 5.8795166,12.9003906 6.1529541,13.1542969 C6.4263916,13.4082031 6.68355306,13.6230469 6.92443848,13.7988281 C7.16532389,13.9746094 7.52990723,14.1764323 8.01818848,14.4042969 C8.50646973,14.6321615 8.90034993,14.8079427 9.1998291,14.9316406 C9.49930827,15.0553385 9.95503743,15.234375 10.5670166,15.46875 C11.2571208,15.7291667 11.7844645,15.9342448 12.1490479,16.0839844 C12.5136312,16.233724 13.0084229,16.4615885 13.6334229,16.7675781 C14.2584229,17.0735677 14.7499593,17.3502604 15.1080322,17.5976562 C15.4661051,17.8450521 15.869751,18.1705729 16.3189697,18.5742188 C16.7681885,18.9778646 17.1132406,19.391276 17.354126,19.8144531 C17.5950114,20.2376302 17.8000895,20.7356771 17.9693604,21.3085938 C18.1386312,21.8815104 18.2232666,22.4934896 18.2232666,23.1445312 Z" id="Path"></path>
        </g>
    </g>
</svg>