<?xml version="1.0" encoding="UTF-8"?>
<svg width="43px" height="43px" viewBox="0 0 43 43" version="1.1" xmlns="http://www.w3.org/2000/svg" xmlns:xlink="http://www.w3.org/1999/xlink">
    <title>Slice</title>
    <g id="Page-1" stroke="none" stroke-width="1" fill="none" fill-rule="evenodd">
        <g id="" fill="#010040" fill-rule="nonzero">
            <path d="M25,11.6071429 L25,24.1071429 C25,24.3675595 24.9162946,24.5814732 24.7488839,24.7488839 C24.5814732,24.9162946 24.3675595,25 24.1071429,25 L15.1785714,25 C14.9181548,25 14.7042411,24.9162946 14.5368304,24.7488839 C14.3694196,24.5814732 14.2857143,24.3675595 14.2857143,24.1071429 L14.2857143,22.3214286 C14.2857143,22.0610119 14.3694196,21.8470982 14.5368304,21.6796875 C14.7042411,21.5122768 14.9181548,21.4285714 15.1785714,21.4285714 L21.4285714,21.4285714 L21.4285714,11.6071429 C21.4285714,11.3467262 21.5122768,11.1328125 21.6796875,10.9654018 C21.8470982,10.7979911 22.0610119,10.7142857 22.3214286,10.7142857 L24.1071429,10.7142857 C24.3675595,10.7142857 24.5814732,10.7979911 24.7488839,10.9654018 C24.9162946,11.1328125 25,11.3467262 25,11.6071429 Z M34.5703125,29.0457589 C35.9281994,26.7206101 36.6071429,24.1815476 36.6071429,21.4285714 C36.6071429,18.6755952 35.9281994,16.1365327 34.5703125,13.8113839 C33.2124256,11.4862351 31.3709077,9.64471726 29.0457589,8.28683036 C26.7206101,6.92894345 24.1815476,6.25 21.4285714,6.25 C18.6755952,6.25 16.1365327,6.92894345 13.8113839,8.28683036 C11.4862351,9.64471726 9.64471726,11.4862351 8.28683036,13.8113839 C6.92894345,16.1365327 6.25,18.6755952 6.25,21.4285714 C6.25,24.1815476 6.92894345,26.7206101 8.28683036,29.0457589 C9.64471726,31.3709077 11.4862351,33.2124256 13.8113839,34.5703125 C16.1365327,35.9281994 18.6755952,36.6071429 21.4285714,36.6071429 C24.1815476,36.6071429 26.7206101,35.9281994 29.0457589,34.5703125 C31.3709077,33.2124256 33.2124256,31.3709077 34.5703125,29.0457589 Z M39.9832589,10.6863839 C41.8991815,13.9601935 42.8571429,17.5409226 42.8571429,21.4285714 C42.8571429,25.3162202 41.8991815,28.9015997 39.9832589,32.1847098 C38.0673363,35.4678199 35.4678199,38.0673363 32.1847098,39.9832589 C28.9015997,41.8991815 25.3162202,42.8571429 21.4285714,42.8571429 C17.5409226,42.8571429 13.9555432,41.8991815 10.672433,39.9832589 C7.38932292,38.0673363 4.78980655,35.4678199 2.87388393,32.1847098 C0.95796131,28.9015997 0,25.3162202 0,21.4285714 C0,17.5409226 0.95796131,13.9555432 2.87388393,10.672433 C4.78980655,7.38932292 7.38932292,4.78980655 10.672433,2.87388393 C13.9555432,0.95796131 17.5409226,0 21.4285714,0 C25.3162202,0 28.9015997,0.95796131 32.1847098,2.87388393 C35.4678199,4.78980655 38.0673363,7.39397321 39.9832589,10.6863839 Z" id="Shape"></path>
        </g>
    </g>
</svg>