<?xml version="1.0" encoding="UTF-8"?>
<svg width="40px" height="35px" viewBox="0 0 40 35" version="1.1" xmlns="http://www.w3.org/2000/svg" xmlns:xlink="http://www.w3.org/1999/xlink">
    <title>Slice</title>
    <g id="Page-1" stroke="none" stroke-width="1" fill="none" fill-rule="evenodd">
        <path d="M6.66666667,20.7880859 C6.66666667,19.9568359 7.011875,19.159082 7.61388889,18.5999023 L12.6229167,13.9459961 C12.7375,13.8396973 12.8849306,13.7880176 13.0125694,13.7014062 C12.2986111,12.0859375 10.7638889,10.9375 8.88888889,10.9375 L4.44444444,10.9375 C1.98958333,10.9375 0,12.8994141 0,15.3125 L0,21.875 C0,23.0829102 0.995138889,24.0625 2.15972222,24.0625 L2.22222222,32.8125 C2.22222222,34.0204102 3.21736111,35 4.44444444,35 L8.88888889,35 C10.1159722,35 11.1111111,34.0204102 11.1111111,32.8125 L11.1111111,26.2233398 L7.61388889,22.9742187 C6.95138889,22.4150391 6.66666667,21.6152344 6.66666667,20.7880859 Z M33.3333333,8.75 C35.7902778,8.75 37.7777778,6.79355469 37.7777778,4.375 C37.7777778,1.95644531 35.7902778,0 33.3333333,0 C30.8763889,0 28.8888889,1.95644531 28.8888889,4.375 C28.8888889,6.79355469 30.875,8.75 33.3333333,8.75 Z M6.66666667,8.75 C9.12361111,8.75 11.1111111,6.79355469 11.1111111,4.375 C11.1111111,1.95644531 9.125,0 6.66666667,0 C4.20833333,0 2.22222222,1.95644531 2.22222222,4.375 C2.22222222,6.79355469 4.21041667,8.75 6.66666667,8.75 Z M30.8611111,20.1865234 L25.8541667,15.5380859 C25.6118056,15.3129785 25.2564583,15.2514551 24.9506944,15.3809277 C24.6458333,15.5107422 24.4444444,15.8046875 24.4444444,16.1328125 L24.4444444,18.59375 L15.5555556,18.59375 L15.5555556,16.1328125 C15.5555556,15.8050293 15.3571528,15.5084863 15.05125,15.3788086 C14.7430556,15.2509766 14.3888889,15.2509766 14.1458333,15.5380859 L9.13888889,20.1865234 C8.80520833,20.4965332 8.80520833,21.0710938 9.13888889,21.3807617 L14.1472222,26.0339844 C14.3895833,26.2589551 14.7449306,26.3204785 15.0506944,26.1910059 C15.3541667,26.0654297 15.5555556,25.7646484 15.5555556,25.4365234 L15.5555556,22.96875 L24.4444444,22.96875 L24.4444444,25.4392578 C24.4444444,25.767041 24.6428472,26.0637207 24.94875,26.1939453 C25.2547222,26.3233496 25.6100694,26.2617715 25.8522222,26.0367871 L30.8605556,21.3835645 C31.1944444,21.0751953 31.1944444,20.5009766 30.8611111,20.1865234 Z M35.5555556,10.9375 L31.1111111,10.9375 C29.2986111,10.9375 27.6402778,12.0838867 26.9875,13.7005859 C27.1154167,13.7874707 27.263125,13.8391504 27.3779861,13.9458594 L32.3863194,18.5983984 C32.9861111,19.1542969 33.3333333,19.9541016 33.3333333,20.7880859 C33.3334722,21.6193359 32.9882639,22.4170898 32.3861111,22.9762695 L28.8888889,26.2226562 L28.8888889,32.8125 C28.8888889,34.0204102 29.8840278,35 31.1111111,35 L35.5555556,35 C36.7826389,35 37.7777778,34.0204102 37.7777778,32.8125 L37.7777778,24.0625 C39.0048611,24.0625 40,23.0829102 40,21.875 L40,15.3125 C40,12.8994141 38.0069444,10.9375 35.5555556,10.9375 Z" id="Shape" fill="#010040" fill-rule="nonzero"></path>
    </g>
</svg>