<?xml version="1.0" encoding="UTF-8"?>
<svg width="95px" height="26px" viewBox="0 0 95 26" version="1.1" xmlns="http://www.w3.org/2000/svg" xmlns:xlink="http://www.w3.org/1999/xlink">
    <title>Slice</title>
    <g id="Page-1" stroke="none" stroke-width="1" fill="none" fill-rule="evenodd">
        <g id="TechDotsLite" fill-rule="nonzero">
            <polygon id="Path" fill="#FFFFFF" points="3.90450615 0.521799258 18.2849579 0.521799258 21.903592 2.98325231 12.6652192 2.98325231 12.6652192 25.7157069 9.70517655 25.7157069 9.70517655 2.98325231 3.91536205 2.98325231"></polygon>
            <path d="M16.3996496,10.9002066 C16.3996496,8.19164858 16.8893714,6.30717356 17.868815,5.24678151 C18.6359654,4.40470546 19.7685979,3.98486698 21.2667124,3.98725583 C23.4378928,3.98725583 24.7997054,4.91690841 25.3521502,6.77619312 C25.7002293,8.16652211 25.8560595,9.59755677 25.8153354,11.0297567 L25.8153354,15.0781993 L19.3669295,15.0781993 L19.3669295,19.3605518 C19.3669295,21.2222356 19.5152935,22.3809898 19.8120215,22.8368144 C20.1219585,23.3038673 20.6622396,23.5670027 21.2232888,23.52415 C21.7852347,23.5748816 22.3121969,23.2466163 22.5115225,22.7216587 C22.7327151,22.1685124 22.8468928,21.5788054 22.8480555,20.9835274 C22.8480555,20.3609669 22.8480555,19.8319704 22.8480555,19.4037352 L22.8480555,17.6692025 L25.7429627,17.6692025 L25.7429627,18.5868494 C25.7429627,20.8683717 25.5825366,22.4673566 25.2616844,23.383804 C25.0232305,24.1898445 24.5118546,24.8890965 23.8142308,25.3630426 C23.0802623,25.789935 22.2395062,26.0008331 21.3897459,25.9712086 C20.6003651,26.0028211 19.8123888,25.8805719 19.0702015,25.611347 C18.5393976,25.4027766 18.0657299,25.0723036 17.6878833,24.6469181 C17.2630233,24.072201 16.957911,23.4188598 16.790462,22.7252573 C16.5299204,21.8519933 16.3996496,20.4401365 16.3996496,18.4896868 L16.3996496,10.9002066 Z M22.86253,10.3568156 C22.86253,8.83100262 22.8082505,7.90975703 22.6996915,7.59307886 C22.597913,7.2971686 22.454126,7.01724452 22.2726926,6.76179866 C22.0390197,6.49776195 21.6906544,6.36348362 21.3390851,6.4019371 C20.4730253,6.4019371 19.9254054,6.76179866 19.6962252,7.48152178 C19.4304457,8.44948164 19.308533,9.45091001 19.3343618,10.4539782 L19.3343618,13.0881648 L22.8444368,13.0881648 L22.86253,10.3568156 Z" id="Shape" fill="#FFFFFF"></path>
            <path d="M28.6921495,11.2852584 C28.6921495,9.42597372 28.8344824,8.0644975 29.1191483,7.20082976 C29.3098427,6.51263894 29.634408,5.86832199 30.0744677,5.30435935 C30.8536802,4.42629716 31.9959624,3.98726606 33.5013141,3.98726606 C35.0066659,3.98726606 36.0922561,4.359123 36.7580848,5.10283688 C37.4094389,5.84894984 37.8123135,6.9561239 37.9667086,8.42435906 C38.0246067,9.05531632 38.0583806,9.80382836 38.0680303,10.6698952 L38.0680303,12.159722 L35.1731231,12.159722 L35.1731231,10.2704488 C35.2068979,9.39423211 35.1547849,8.51682682 35.0175218,7.65065671 C34.7181842,7.10963358 34.2244987,6.70093333 33.6352036,6.50629696 C32.7633563,6.43347799 31.9876737,7.0543927 31.8729288,7.91695426 C31.7108467,8.72225937 31.639241,9.54298058 31.6594294,10.3640129 L31.6594294,19.4901019 C31.6594294,20.9583371 31.7716071,21.9863416 31.9959624,22.5741155 C32.1751627,23.1269007 32.7085395,23.4884202 33.2914334,23.4521777 C33.8378623,23.4977503 34.3699295,23.2630364 34.7027006,22.8296172 C34.9994286,22.4169759 35.1477926,21.3217973 35.1477926,19.5440812 L35.1477926,17.4712786 L38.0426999,17.4712786 L38.0426999,18.8603442 C38.0426999,21.7896173 37.6542998,23.7088789 36.8774997,24.6181291 C36.1006996,25.5273793 34.9149938,25.9796054 33.3203824,25.974845 C30.8211125,25.9724081 29.3555657,24.6313241 28.923742,21.951555 C28.7566841,20.794419 28.6792587,19.6262303 28.6921495,18.4572993 L28.6921495,11.2852584 Z" id="Path" fill="#FFFFFF"></path>
            <path d="M41.6323849,0.248304475 L44.5815716,0.248304475 L44.5815716,6.52069142 C44.7969898,5.80429685 45.2353602,5.1743181 45.833619,4.72138363 C46.5193939,4.19924986 47.3659561,3.9296451 48.2291548,3.95847713 C49.1589786,3.94020169 50.0389111,4.37571775 50.5848855,5.12442858 C51.1904036,5.90172954 51.4919565,7.05328652 51.4895584,8.57909953 L51.4895584,25.7157069 L48.5403573,25.7157069 L48.5403573,8.83819985 C48.5403573,7.28359792 47.9505199,6.50629696 46.7708452,6.50629696 C46.1676343,6.49106511 45.5890798,6.74443195 45.1931208,7.19723115 C44.7454675,7.76914876 44.5275098,8.48609742 44.5815716,9.20885725 L44.5815716,25.7265027 L41.6323849,25.7265027 L41.6323849,0.248304475 Z" id="Path" fill="#FFFFFF"></path>
            <path d="M61.3358473,0.248304475 L64.3031273,0.248304475 L64.3031273,25.7157069 L61.3358473,25.7157069 L61.3358473,23.9163991 C60.9078886,25.1720884 59.688614,25.988299 58.3577115,25.9100321 C56.3626379,25.9100321 55.1962315,24.6049342 54.8584924,21.9947384 C54.7325768,20.9499478 54.6745582,19.8981681 54.6847979,18.8459498 L54.6847979,10.727473 C54.6847979,8.14126797 55.1069719,6.31437079 55.9513198,5.24678151 C56.6440929,4.39698453 57.7043157,3.92867852 58.8028035,3.98726606 C59.3371437,3.985257 59.85863,4.1501521 60.2936807,4.4586847 C60.7434268,4.76500274 61.1031195,5.18480672 61.3358473,5.67501676 L61.3358473,0.248304475 Z M61.3358473,10.6842896 C61.3358473,9.17766925 61.2152262,8.09808458 60.9739839,7.44553562 C60.7344471,6.84726934 60.1523474,6.45468217 59.5048185,6.45468217 C58.8572896,6.45468217 58.2751899,6.84726934 58.0356531,7.44553562 C57.7823487,8.1112795 57.6556965,9.21245587 57.6556965,10.7598606 L57.6556965,19.4325241 C57.6556965,21.5293174 57.9343313,22.7984292 58.491601,23.2398594 C59.1149913,23.6234057 59.9094932,23.5949846 60.5035615,23.1678871 C61.0704808,22.6880717 61.3539405,21.3997673 61.3539405,19.3029739 L61.3358473,10.6842896 Z" id="Shape" fill="#FFFFFF"></path>
            <path d="M78.1624957,0.521799258 L81.1116825,0.521799258 L81.1116825,4.41550131 L83.4457014,4.41550131 L83.4457014,6.59266373 L81.1116825,6.59266373 L81.1116825,22.2646346 C81.1116825,22.8188213 81.2419533,23.1642884 81.502495,23.3046345 C81.7630366,23.4449805 82.4180094,23.5097555 83.4746505,23.5097555 L83.4746505,25.845257 L81.4445968,25.845257 C80.0803718,25.845257 79.1938064,25.5969526 78.7812821,25.1255339 C78.3687579,24.6541153 78.1624957,23.7508628 78.1624957,22.5237349 L78.1624957,6.59266373 L67.5598979,6.59266373 L71.178532,4.41550131 L78.1624957,4.41550131 L78.1624957,0.521799258 Z" id="Path" fill="#FFFFFF"></path>
            <path d="M95,20.7928008 C95,24.2666643 93.4596681,26.0023966 90.3790043,26 C88.8254041,26 87.6602039,25.5093863 86.8834038,24.5281637 C86.1066037,23.5469412 85.7182036,21.9683485 85.7182036,19.7923857 L85.7182036,18.1730086 L88.5805432,18.1730086 L88.5805432,19.7923857 C88.5805432,22.2754304 89.1474625,23.5157532 90.2813012,23.5133542 C90.8038686,23.5613321 91.3134501,23.3332208 91.6238144,22.9123854 C91.8988306,22.512939 92.0363387,21.8328007 92.0363387,20.8251883 C92.0363387,19.2681873 91.3126119,17.7879568 89.8651583,16.3844967 C89.7602179,16.2801369 89.5032949,16.0462268 89.116101,15.6647736 L88.3380947,14.9270574 C86.4660547,13.1493413 85.5312409,11.1880958 85.5336486,9.04332094 C85.5336486,7.34477438 85.9365279,6.0780617 86.7422771,5.24318289 C87.5480263,4.40830408 88.6951333,3.99086467 90.1835981,3.99086467 C91.0465714,3.95338504 91.9017764,4.16725425 92.6442692,4.60622793 C93.9686893,5.46269844 94.6308993,7.48991855 94.6308993,10.6878883 L94.6308993,11.7206909 L91.8228393,11.7206909 L91.8228393,10.2272655 C91.8670917,9.28018883 91.7446297,8.332705 91.4609759,7.42754254 C91.2979611,6.87331952 90.782258,6.49605038 90.2016912,6.50629696 C89.6912662,6.46791759 89.1933085,6.67536751 88.8627966,7.06408237 C88.5612438,7.43593931 88.4116736,8.06569704 88.414086,8.95335555 C88.414086,10.3472193 89.0714712,11.6931015 90.3862416,12.9910022 L91.9422542,14.4304484 C93.9807514,16.3737009 95,18.494485 95,20.7928008 Z" id="Path" fill="#FFFFFF"></path>
            <ellipse id="Oval" fill="#FFFFFF" cx="70.950558" cy="17.4964689" rx="8.27219746" ry="8.2264352"></ellipse>
            <ellipse id="Oval" fill="#69B072" cx="70.950558" cy="17.6116246" rx="1.70075801" ry="1.69134932"></ellipse>
            <ellipse id="Oval" fill="#69B072" cx="1.70075801" cy="1.69134932" rx="1.70075801" ry="1.69134932"></ellipse>
        </g>
    </g>
</svg>