<?xml version="1.0" encoding="utf-8"?>
<!-- Generator: Adobe Illustrator 25.4.1, SVG Export Plug-In . SVG Version: 6.00 Build 0)  -->
<svg version="1.1" id="Layer_1" width="100px" height="100px" xmlns="http://www.w3.org/2000/svg" xmlns:xlink="http://www.w3.org/1999/xlink" x="0px" y="0px"
	 viewBox="0 0 310 245" style="enable-background:new 0 0 310 245;" xml:space="preserve">
<style type="text/css">
	.st0{display:none;fill:#F05336;}
	.st1{display:none;opacity:0.102;fill:#F05336;enable-background:new    ;}
	.st2{fill:#F05336;}
</style>
<g>
	<polyline class="st0" points="-101,381 411,381 411,-131 -101,-131 -101,381 	"/>
	<polyline class="st1" points="248,14 64,19 13,87 205,381 411,381 411,258 248,14 	"/>
	<path class="st2" d="M194.8,95.2c-0.1,0.3-0.2,0.8-0.2,1.1l-2.6,12.3l2.8-13L194.8,95.2"/>
	<polyline class="st2" points="116,103.4 114.6,108.6 116,103.4 116,103.4 	"/>
	<path class="st2" d="M32.1,88.3l110.4,116.1L89.7,88.3H32.1z M104.3,88.3l50.5,114.9l50.5-114.9L104.3,88.3L104.3,88.3z
		 M273.9,88.3h-53.9l-52.7,116.1L273.9,88.3z M110.6,75h90.7l-45.3-47.3L110.6,75z M233.9,23.6h-66l45.2,47.2L233.9,23.6z
		 M75.8,23.6l21.5,48.8L144,23.6H75.8z M274,75l-29-43.6L225.8,75H274z M36.3,75h47.5L65.1,32.4L36.3,75z M62.6,16h184.6l45.7,68.5
		L154,233L15,86.4L62.6,16z"/>
	<path class="st2" d="M32.1,88.3l110.4,116.1L89.7,88.3H32.1z M104.3,88.3l50.5,114.9l50.5-114.9L104.3,88.3L104.3,88.3z
		 M273.9,88.3h-53.9l-52.7,116.1L273.9,88.3z M110.6,75h90.7l-45.3-47.3L110.6,75z M233.9,23.6h-66l45.2,47.2L233.9,23.6z
		 M75.8,23.6l21.5,48.8L144,23.6H75.8z M274,75l-29-43.6L225.8,75H274z M36.3,75h47.5L65.1,32.4L36.3,75z M62.6,16h184.6l45.7,68.5
		L154,233L15,86.4L62.6,16z"/>
</g>
</svg>
