<?xml version="1.0" encoding="utf-8"?>
<!-- Generator: Adobe Illustrator 25.4.1, SVG Export Plug-In . SVG Version: 6.00 Build 0)  -->
<svg version="1.1" id="Layer_1" xmlns="http://www.w3.org/2000/svg" xmlns:xlink="http://www.w3.org/1999/xlink" x="0px" y="0px"
	 viewBox="0 0 410 386" style="enable-background:new 0 0 410 386;" xml:space="preserve">
<style type="text/css">
	.st0{display:none;fill:#F05336;}
	.st1{display:none;opacity:0.102;fill:#F05336;enable-background:new    ;}
	.st2{fill:#F05336;}
</style>
<g>
	<polyline class="st0" points="-46,460 466,460 466,-52 -46,-52 -46,460 	"/>
	<polyline class="st1" points="303,93 119,98 68,166 260,460 466,460 466,337 303,93 	"/>
	<path class="st2" d="M249.8,174.2c-0.1,0.3-0.2,0.8-0.2,1.1l-2.6,12.3l2.8-13L249.8,174.2"/>
	<polyline class="st2" points="171,182.4 169.6,187.6 171,182.4 171,182.4 	"/>
	<path class="st2" d="M87.1,167.3l110.4,116.1l-52.8-116.1H87.1z M159.3,167.3l50.5,114.9l50.5-114.9L159.3,167.3L159.3,167.3z
		 M328.9,167.3h-53.9l-52.7,116.1L328.9,167.3z M165.6,154h90.7l-45.3-47.3L165.6,154z M288.9,102.6h-66l45.2,47.2L288.9,102.6z
		 M130.8,102.6l21.5,48.8l46.7-48.8H130.8z M329,154l-29-43.6L280.8,154H329z M91.3,154h47.5l-18.7-42.6L91.3,154z M117.6,95h184.6
		l45.7,68.5L209,312L70,165.4L117.6,95z"/>
	<path class="st2" d="M87.1,167.3l110.4,116.1l-52.8-116.1H87.1z M159.3,167.3l50.5,114.9l50.5-114.9L159.3,167.3L159.3,167.3z
		 M328.9,167.3h-53.9l-52.7,116.1L328.9,167.3z M165.6,154h90.7l-45.3-47.3L165.6,154z M288.9,102.6h-66l45.2,47.2L288.9,102.6z
		 M130.8,102.6l21.5,48.8l46.7-48.8H130.8z M329,154l-29-43.6L280.8,154H329z M91.3,154h47.5l-18.7-42.6L91.3,154z M117.6,95h184.6
		l45.7,68.5L209,312L70,165.4L117.6,95z"/>
</g>
</svg>
