<?xml version="1.0" encoding="utf-8"?>
<!-- Generator: Adobe Illustrator 25.4.1, SVG Export Plug-In . SVG Version: 6.00 Build 0)  -->
<svg version="1.1" id="Layer_1" xmlns="http://www.w3.org/2000/svg" xmlns:xlink="http://www.w3.org/1999/xlink" x="0px" y="0px"
	 viewBox="0 0 92.7 88.1" style="enable-background:new 0 0 92.7 88.1;" xml:space="preserve">
<style type="text/css">
	.st0{fill:#1976D2;}
	.st1{fill:#FFFFFF;}
</style>
<rect x="-2.6" y="-6.9" class="st0" width="100" height="100"/>
<polygon class="st1" points="48.7,23.9 21,23.9 21,30.7 30.9,30.7 30.9,61.4 38.8,61.4 38.8,30.7 48.7,30.7 "/>
<path class="st1" d="M71.1,32.4c0,0-3.7-2.5-7.9-2.5s-5.8,2.1-5.8,4.2c0,5.5,15.4,5,15.4,16.1c0,17.1-23.4,9.5-23.4,9.5v-8.2
	c0,0,4.5,3.4,9.9,3.4s5.2-3.5,5.2-4c0-5.1-15.2-5.1-15.2-16.4c-0.2-15.4,22-9.4,22-9.4L71.1,32.4z"/>
</svg>
