<?xml version="1.0" encoding="utf-8"?>
<!-- Generator: Adobe Illustrator 25.4.1, SVG Export Plug-In . SVG Version: 6.00 Build 0)  -->
<svg version="1.1" id="Layer_1" xmlns="http://www.w3.org/2000/svg" xmlns:xlink="http://www.w3.org/1999/xlink" x="0px" y="0px"
	 viewBox="0 0 180 180" style="enable-background:new 0 0 180 180;" xml:space="preserve">
<style type="text/css">
	.st0{fill:#1976D2;}
	.st1{fill:#FFFFFF;}
</style>
<rect class="st0" width="180" height="180"/>
<polygon class="st1" points="107.4,80 41.1,80 41.1,96.3 64.9,96.3 64.9,170 83.8,170 83.8,96.3 107.4,96.3 "/>
<path class="st1" d="M166,100.4c0,0-8.9-6-19-6c-10.1,0-13.7,4.8-13.7,9.9c0,13.2,36.9,11.9,36.9,38.6c0,41-56.3,22.8-56.3,22.8
	v-19.7c0,0,10.8,8.1,23.7,8.1s12.4-8.4,12.4-9.6c0-12.2-36.6-12.2-36.6-39.4c0-36.9,53.3-22.3,53.3-22.3L166,100.4z"/>
</svg>
